<svg id="Layer_1" data-name="Layer 1" xmlns="http://www.w3.org/2000/svg" viewBox="0 0 499.5 88.47"><defs><style>.cls-1{fill:#00b5ef;}.cls-2{fill:#0072bc;}</style></defs><path class="cls-1" d="M75.3,70.81a2.6,2.6,0,1,1-2.58-2.53A2.56,2.56,0,0,1,75.3,70.81Zm-4.55,0a2,2,0,0,0,2,2,1.93,1.93,0,0,0,1.93-2,2,2,0,1,0-3.9,0Zm1.56,1.31h-.59V69.59a7.09,7.09,0,0,1,1-.07,1.29,1.29,0,0,1,.86.2.63.63,0,0,1,.27.54.66.66,0,0,1-.53.6v0c.25.08.37.28.45.62a2.74,2.74,0,0,0,.18.61h-.61a1.75,1.75,0,0,1-.2-.61c0-.27-.2-.39-.53-.39h-.27Zm0-1.42h.28c.32,0,.58-.1.58-.37S73,70,72.64,70a1.17,1.17,0,0,0-.32,0Z"/><path class="cls-2" d="M113.14,62C100.55,62,94.5,52.84,94.5,44c0-10.17,7.32-18.35,18.85-18.35a17.22,17.22,0,0,1,11.17,3.91l-3.56,5a11.38,11.38,0,0,0-7.4-2.33c-6.11,0-10.67,4.26-10.67,11.59,0,6.69,4.2,12,10.89,12a11,11,0,0,0,7.54-2.78l3.27,5a17.66,17.66,0,0,1-11.45,4"/><path class="cls-2" d="M143.94,62a17.89,17.89,0,0,1-18.28-18.36c0-10.67,8.46-18,18.28-18s18.36,7.25,18.36,17.92c0,10.47-7.76,18.43-18.36,18.43m9.89-18.36c0-6.4-3.13-11.94-9.89-11.94s-9.89,5.54-9.89,11.87c0,6.55,3.06,12.39,9.89,12.39s9.89-5.77,9.89-12.39Z"/><path class="cls-2" d="M183.64,62a17.9,17.9,0,0,1-18.29-18.36c0-10.67,8.47-18,18.29-18S202,32.92,202,43.59C202,54.06,194.24,62,183.64,62m9.89-18.36c0-6.4-3.13-11.94-9.89-11.94s-9.89,5.54-9.89,11.87c0,6.55,3.06,12.39,9.89,12.39s9.89-5.77,9.89-12.39Z"/><polygon class="cls-2" points="206.12 61.17 206.12 10.23 214.02 14.57 214.02 61.17 206.12 61.17"/><path class="cls-2" d="M232.23,62.23c-8.89,0-13.16-4.27-13.16-4.27l3.56-4.62A18.55,18.55,0,0,0,232,56.05c2.56,0,4.7-1.79,4.7-3.56s-.79-3.28-3.14-4.48-5-2.49-7-3.49-6.61-4.06-6.61-10S226,25.1,232.3,25.1A17.92,17.92,0,0,1,242.83,29l-3.06,4.69a14.23,14.23,0,0,0-7.18-2.41c-3.77,0-4.56,2.41-4.56,3.41s.36,2.56,2.78,3.84,4.9,2.64,8.47,4.63a10.43,10.43,0,0,1,5.54,9.24c0,3.85-3.7,9.82-12.59,9.82"/><path class="cls-2" d="M266.17,62c-12.6,0-18.65-9.18-18.65-18,0-10.17,7.33-18.35,18.86-18.35a17.24,17.24,0,0,1,11.17,3.91l-3.56,5a11.38,11.38,0,0,0-7.4-2.33c-6.11,0-10.66,4.26-10.66,11.59,0,6.69,4.19,12,10.88,12a11,11,0,0,0,7.54-2.78l3.27,5a17.66,17.66,0,0,1-11.45,4"/><path class="cls-2" d="M305.08,57.11A15.41,15.41,0,0,1,293.55,62c-8.89,0-13.23-6.47-13.23-13V26.45h7.9v22.2c0,3.84,3,7,7.61,7,4.06,0,8-4.84,8-4.84V26.45h7.9V61.1Z"/><polygon class="cls-2" points="318.81 61.17 318.81 10.23 326.71 14.57 326.71 61.17 318.81 61.17"/><path class="cls-2" d="M352.82,62a16.42,16.42,0,0,1-11-3.91V75.4h-8V25.74l8,4.19a16.94,16.94,0,0,1,11.39-4.33c7.47,0,16.78,5.75,16.78,18.63S360.86,62,352.82,62m-.5-30.3c-6.76,0-10.67,6.33-10.67,6.33V51.14s4.48,5,11,5c7.55,0,9.18-9,9.18-12.17s-.71-12.3-9.46-12.3"/><path class="cls-2" d="M390.81,62.09h-5c-6.27,0-8.39-6-8.39-10V31.64h-6.27V26.45h6.27V11.15h7.82v15.3h8v5.19h-8v18.5c0,2.07-.36,5.34,3.13,5.34h5.69Z"/><path class="cls-2" d="M403.47,20.47a5.19,5.19,0,1,1,5.2-5.19,5.22,5.22,0,0,1-5.2,5.19m-3.91,6h7.76V61.17h-7.76Z"/><path class="cls-2" d="M438.62,61.17V39c0-3.84-3-7-7.61-7-4.07,0-8.61,4.83-8.61,4.83V61.17h-7.9V26.53l6.69,4a17.51,17.51,0,0,1,12.09-4.91c8.89,0,13.23,6.47,13.23,13V61.17Z"/><path class="cls-2" d="M470.63,77.31c-1.21,0-10.47-.13-10.47-.13l.13-6.34h7.78c7.54,0,11.8-4,11.8-9.6V58.1A17,17,0,0,1,468.78,62c-8,0-17.22-4.92-17.22-17.8s9.32-18.63,16.79-18.63a16.94,16.94,0,0,1,11.39,4.33l8-4V60.46c0,9.31-6.2,16.85-17.08,16.85M480,38.05s-3.91-6.33-10.67-6.33c-8.75,0-9.46,9.16-9.46,12.3s1.63,12.17,9.17,12.17c6.48,0,11-5,11-5Z"/><polygon class="cls-1" points="23.79 87.5 23.79 64.81 28.25 60.34 41.11 73.2 41.11 77.52 23.79 87.5"/><polygon class="cls-2" points="14.54 45.37 0 59.92 17.8 66.61 39.03 45.37 14.54 45.37"/><polygon class="cls-1" points="21.72 25.09 2.98 25.09 8.98 42.41 39.03 42.41 21.72 25.09"/><polygon class="cls-2" points="41.13 15.83 26.66 1.37 19.89 19.08 41.13 40.32 41.13 15.83"/><polygon class="cls-1" points="84.89 62.68 63.49 62.68 46.18 45.37 76.21 45.37 84.89 62.68"/><polygon class="cls-2" points="67.41 21.19 86.84 26.25 70.67 42.42 46.18 42.42 67.41 21.19"/><polygon class="cls-1" points="44.09 10.29 61.4 0 61.4 23 44.09 40.32 44.09 10.29"/><polygon class="cls-2" points="66.13 69.54 60.58 88.47 30.36 58.24 42.59 46.01 66.13 69.54"/><path class="cls-2" d="M499.5,28.81a3.77,3.77,0,1,1-3.73-3.67A3.69,3.69,0,0,1,499.5,28.81Zm-6.59,0a2.85,2.85,0,0,0,2.86,2.92,2.8,2.8,0,0,0,2.79-2.9,2.83,2.83,0,1,0-5.65,0Zm2.26,1.89h-.85V27a9.09,9.09,0,0,1,1.4-.11,2,2,0,0,1,1.26.29.94.94,0,0,1,.38.78,1,1,0,0,1-.76.87v.05c.35.11.53.4.64.89a3.32,3.32,0,0,0,.27.89h-.89a2.79,2.79,0,0,1-.29-.89c-.07-.38-.29-.56-.76-.56h-.4Zm0-2.05h.4c.47,0,.85-.16.85-.54s-.24-.56-.78-.56a2.05,2.05,0,0,0-.47.05Z"/></svg>