<svg xmlns="http://www.w3.org/2000/svg" xmlns:xlink="http://www.w3.org/1999/xlink" width="24" height="24" viewBox="0 0 24 24">
    <defs>
        <path id="a" d="M11 12.586L21.293 2.293a1 1 0 0 1 1.414 1.414l-11 11a1 1 0 0 1-1.414 0l-3-3a1 1 0 0 1 1.414-1.414L11 12.586zM19 12a1 1 0 0 1 2 0v7a3 3 0 0 1-3 3H4a3 3 0 0 1-3-3V5a3 3 0 0 1 3-3h11a1 1 0 0 1 0 2H4a1 1 0 0 0-1 1v14a1 1 0 0 0 1 1h14a1 1 0 0 0 1-1v-7z"/>
    </defs>
    <g fill="none" fill-rule="evenodd">
        <mask id="b" fill="#fff">
            <use xlink:href="#a"/>
        </mask>
        <use fill="#fff" fill-rule="nonzero" xlink:href="#a"/>
        <g fill="#fff" mask="url(#b)">
            <path d="M0 0h24v24H0z"/>
        </g>
    </g>
</svg>
